<mxfile host="app.diagrams.net" modified="2020-11-16T00:27:47.394Z" agent="5.0 (Windows NT 10.0; Win64; x64) AppleWebKit/537.36 (KHTML, like Gecko) Chrome/86.0.4240.193 Safari/537.36" etag="snyHAHs1vyf_M6LyP1x1" version="13.9.7" type="github">
  <diagram id="_1jgvLtCHchp6MiSGvZc" name="Page-1">
    <mxGraphModel dx="1102" dy="582" grid="1" gridSize="10" guides="1" tooltips="1" connect="1" arrows="1" fold="1" page="1" pageScale="1" pageWidth="827" pageHeight="1169" math="0" shadow="0">
      <root>
        <mxCell id="0" />
        <mxCell id="1" parent="0" />
        <mxCell id="XYN2sOscaeufvXK0oWOo-1" value="" style="shape=table;html=1;whiteSpace=wrap;startSize=0;container=1;collapsible=0;childLayout=tableLayout;" parent="1" vertex="1">
          <mxGeometry x="20" y="260" width="900" height="110" as="geometry" />
        </mxCell>
        <mxCell id="XYN2sOscaeufvXK0oWOo-2" value="" style="shape=partialRectangle;html=1;whiteSpace=wrap;collapsible=0;dropTarget=0;pointerEvents=0;fillColor=none;top=0;left=0;bottom=0;right=0;points=[[0,0.5],[1,0.5]];portConstraint=eastwest;" parent="XYN2sOscaeufvXK0oWOo-1" vertex="1">
          <mxGeometry width="900" height="55" as="geometry" />
        </mxCell>
        <mxCell id="XYN2sOscaeufvXK0oWOo-3" value="2" style="shape=partialRectangle;html=1;whiteSpace=wrap;connectable=0;overflow=hidden;fillColor=none;top=0;left=0;bottom=0;right=0;" parent="XYN2sOscaeufvXK0oWOo-2" vertex="1">
          <mxGeometry width="69" height="55" as="geometry" />
        </mxCell>
        <mxCell id="XYN2sOscaeufvXK0oWOo-4" value="4" style="shape=partialRectangle;html=1;whiteSpace=wrap;connectable=0;overflow=hidden;fillColor=none;top=0;left=0;bottom=0;right=0;" parent="XYN2sOscaeufvXK0oWOo-2" vertex="1">
          <mxGeometry x="69" width="70" height="55" as="geometry" />
        </mxCell>
        <mxCell id="XYN2sOscaeufvXK0oWOo-5" value="6" style="shape=partialRectangle;html=1;whiteSpace=wrap;connectable=0;overflow=hidden;fillColor=none;top=0;left=0;bottom=0;right=0;" parent="XYN2sOscaeufvXK0oWOo-2" vertex="1">
          <mxGeometry x="139" width="69" height="55" as="geometry" />
        </mxCell>
        <mxCell id="XYN2sOscaeufvXK0oWOo-6" value="8" style="shape=partialRectangle;html=1;whiteSpace=wrap;connectable=0;overflow=hidden;fillColor=none;top=0;left=0;bottom=0;right=0;" parent="XYN2sOscaeufvXK0oWOo-2" vertex="1">
          <mxGeometry x="208" width="69" height="55" as="geometry" />
        </mxCell>
        <mxCell id="XYN2sOscaeufvXK0oWOo-7" value="10&lt;br&gt;speak+" style="shape=partialRectangle;html=1;whiteSpace=wrap;connectable=0;overflow=hidden;fillColor=none;top=0;left=0;bottom=0;right=0;" parent="XYN2sOscaeufvXK0oWOo-2" vertex="1">
          <mxGeometry x="277" width="70" height="55" as="geometry" />
        </mxCell>
        <mxCell id="XYN2sOscaeufvXK0oWOo-8" value="12" style="shape=partialRectangle;html=1;whiteSpace=wrap;connectable=0;overflow=hidden;fillColor=none;top=0;left=0;bottom=0;right=0;" parent="XYN2sOscaeufvXK0oWOo-2" vertex="1">
          <mxGeometry x="347" width="68" height="55" as="geometry" />
        </mxCell>
        <mxCell id="XYN2sOscaeufvXK0oWOo-9" value="14" style="shape=partialRectangle;html=1;whiteSpace=wrap;connectable=0;overflow=hidden;fillColor=none;top=0;left=0;bottom=0;right=0;" parent="XYN2sOscaeufvXK0oWOo-2" vertex="1">
          <mxGeometry x="415" width="70" height="55" as="geometry" />
        </mxCell>
        <mxCell id="XYN2sOscaeufvXK0oWOo-10" value="16" style="shape=partialRectangle;html=1;whiteSpace=wrap;connectable=0;overflow=hidden;fillColor=none;top=0;left=0;bottom=0;right=0;" parent="XYN2sOscaeufvXK0oWOo-2" vertex="1">
          <mxGeometry x="485" width="68" height="55" as="geometry" />
        </mxCell>
        <mxCell id="XYN2sOscaeufvXK0oWOo-11" value="18" style="shape=partialRectangle;html=1;whiteSpace=wrap;connectable=0;overflow=hidden;fillColor=none;top=0;left=0;bottom=0;right=0;" parent="XYN2sOscaeufvXK0oWOo-2" vertex="1">
          <mxGeometry x="553" width="70" height="55" as="geometry" />
        </mxCell>
        <mxCell id="XYN2sOscaeufvXK0oWOo-12" value="20" style="shape=partialRectangle;html=1;whiteSpace=wrap;connectable=0;overflow=hidden;fillColor=none;top=0;left=0;bottom=0;right=0;" parent="XYN2sOscaeufvXK0oWOo-2" vertex="1">
          <mxGeometry x="623" width="69" height="55" as="geometry" />
        </mxCell>
        <mxCell id="XYN2sOscaeufvXK0oWOo-13" value="22" style="shape=partialRectangle;html=1;whiteSpace=wrap;connectable=0;overflow=hidden;fillColor=none;top=0;left=0;bottom=0;right=0;" parent="XYN2sOscaeufvXK0oWOo-2" vertex="1">
          <mxGeometry x="692" width="69" height="55" as="geometry" />
        </mxCell>
        <mxCell id="XYN2sOscaeufvXK0oWOo-14" value="24" style="shape=partialRectangle;html=1;whiteSpace=wrap;connectable=0;overflow=hidden;fillColor=none;top=0;left=0;bottom=0;right=0;" parent="XYN2sOscaeufvXK0oWOo-2" vertex="1">
          <mxGeometry x="761" width="70" height="55" as="geometry" />
        </mxCell>
        <mxCell id="XYN2sOscaeufvXK0oWOo-15" value="26&lt;br&gt;Alarm&lt;br&gt;Input" style="shape=partialRectangle;html=1;whiteSpace=wrap;connectable=0;overflow=hidden;fillColor=none;top=0;left=0;bottom=0;right=0;" parent="XYN2sOscaeufvXK0oWOo-2" vertex="1">
          <mxGeometry x="831" width="69" height="55" as="geometry" />
        </mxCell>
        <mxCell id="XYN2sOscaeufvXK0oWOo-16" value="" style="shape=partialRectangle;html=1;whiteSpace=wrap;collapsible=0;dropTarget=0;pointerEvents=0;fillColor=none;top=0;left=0;bottom=0;right=0;points=[[0,0.5],[1,0.5]];portConstraint=eastwest;" parent="XYN2sOscaeufvXK0oWOo-1" vertex="1">
          <mxGeometry y="55" width="900" height="55" as="geometry" />
        </mxCell>
        <mxCell id="XYN2sOscaeufvXK0oWOo-17" value="1" style="shape=partialRectangle;html=1;whiteSpace=wrap;connectable=0;overflow=hidden;fillColor=none;top=0;left=0;bottom=0;right=0;" parent="XYN2sOscaeufvXK0oWOo-16" vertex="1">
          <mxGeometry width="69" height="55" as="geometry" />
        </mxCell>
        <mxCell id="XYN2sOscaeufvXK0oWOo-18" value="3" style="shape=partialRectangle;html=1;whiteSpace=wrap;connectable=0;overflow=hidden;fillColor=none;top=0;left=0;bottom=0;right=0;" parent="XYN2sOscaeufvXK0oWOo-16" vertex="1">
          <mxGeometry x="69" width="70" height="55" as="geometry" />
        </mxCell>
        <mxCell id="XYN2sOscaeufvXK0oWOo-19" value="5" style="shape=partialRectangle;html=1;whiteSpace=wrap;connectable=0;overflow=hidden;fillColor=none;top=0;left=0;bottom=0;right=0;" parent="XYN2sOscaeufvXK0oWOo-16" vertex="1">
          <mxGeometry x="139" width="69" height="55" as="geometry" />
        </mxCell>
        <mxCell id="XYN2sOscaeufvXK0oWOo-20" value="7" style="shape=partialRectangle;html=1;whiteSpace=wrap;connectable=0;overflow=hidden;fillColor=none;top=0;left=0;bottom=0;right=0;" parent="XYN2sOscaeufvXK0oWOo-16" vertex="1">
          <mxGeometry x="208" width="69" height="55" as="geometry" />
        </mxCell>
        <mxCell id="XYN2sOscaeufvXK0oWOo-21" value="9&lt;br&gt;speak-" style="shape=partialRectangle;html=1;whiteSpace=wrap;connectable=0;overflow=hidden;fillColor=none;top=0;left=0;bottom=0;right=0;" parent="XYN2sOscaeufvXK0oWOo-16" vertex="1">
          <mxGeometry x="277" width="70" height="55" as="geometry" />
        </mxCell>
        <mxCell id="XYN2sOscaeufvXK0oWOo-22" value="11" style="shape=partialRectangle;html=1;whiteSpace=wrap;connectable=0;overflow=hidden;fillColor=none;top=0;left=0;bottom=0;right=0;" parent="XYN2sOscaeufvXK0oWOo-16" vertex="1">
          <mxGeometry x="347" width="68" height="55" as="geometry" />
        </mxCell>
        <mxCell id="XYN2sOscaeufvXK0oWOo-23" value="13" style="shape=partialRectangle;html=1;whiteSpace=wrap;connectable=0;overflow=hidden;fillColor=none;top=0;left=0;bottom=0;right=0;" parent="XYN2sOscaeufvXK0oWOo-16" vertex="1">
          <mxGeometry x="415" width="70" height="55" as="geometry" />
        </mxCell>
        <mxCell id="XYN2sOscaeufvXK0oWOo-24" value="15" style="shape=partialRectangle;html=1;whiteSpace=wrap;connectable=0;overflow=hidden;fillColor=none;top=0;left=0;bottom=0;right=0;" parent="XYN2sOscaeufvXK0oWOo-16" vertex="1">
          <mxGeometry x="485" width="68" height="55" as="geometry" />
        </mxCell>
        <mxCell id="XYN2sOscaeufvXK0oWOo-25" value="17&lt;br&gt;PTT" style="shape=partialRectangle;html=1;whiteSpace=wrap;connectable=0;overflow=hidden;fillColor=none;top=0;left=0;bottom=0;right=0;" parent="XYN2sOscaeufvXK0oWOo-16" vertex="1">
          <mxGeometry x="553" width="70" height="55" as="geometry" />
        </mxCell>
        <mxCell id="XYN2sOscaeufvXK0oWOo-26" value="19" style="shape=partialRectangle;html=1;whiteSpace=wrap;connectable=0;overflow=hidden;fillColor=none;top=0;left=0;bottom=0;right=0;" parent="XYN2sOscaeufvXK0oWOo-16" vertex="1">
          <mxGeometry x="623" width="69" height="55" as="geometry" />
        </mxCell>
        <mxCell id="XYN2sOscaeufvXK0oWOo-27" value="21&lt;br&gt;USB_VBUS" style="shape=partialRectangle;html=1;whiteSpace=wrap;connectable=0;overflow=hidden;fillColor=none;top=0;left=0;bottom=0;right=0;" parent="XYN2sOscaeufvXK0oWOo-16" vertex="1">
          <mxGeometry x="692" width="69" height="55" as="geometry" />
        </mxCell>
        <mxCell id="XYN2sOscaeufvXK0oWOo-28" value="23&lt;br&gt;Emergency" style="shape=partialRectangle;html=1;whiteSpace=wrap;connectable=0;overflow=hidden;fillColor=none;top=0;left=0;bottom=0;right=0;" parent="XYN2sOscaeufvXK0oWOo-16" vertex="1">
          <mxGeometry x="761" width="70" height="55" as="geometry" />
        </mxCell>
        <mxCell id="XYN2sOscaeufvXK0oWOo-29" value="25&lt;br&gt;&amp;nbsp;IGINTION" style="shape=partialRectangle;html=1;whiteSpace=wrap;connectable=0;overflow=hidden;fillColor=none;top=0;left=0;bottom=0;right=0;" parent="XYN2sOscaeufvXK0oWOo-16" vertex="1">
          <mxGeometry x="831" width="69" height="55" as="geometry" />
        </mxCell>
        <mxCell id="XYN2sOscaeufvXK0oWOo-31" value="" style="endArrow=classic;startArrow=classic;html=1;exitX=0.96;exitY=-0.036;exitDx=0;exitDy=0;exitPerimeter=0;entryX=0.963;entryY=1.036;entryDx=0;entryDy=0;entryPerimeter=0;" parent="XYN2sOscaeufvXK0oWOo-1" source="XYN2sOscaeufvXK0oWOo-2" target="XYN2sOscaeufvXK0oWOo-16" edge="1">
          <mxGeometry width="50" height="50" relative="1" as="geometry">
            <mxPoint x="370" y="40" as="sourcePoint" />
            <mxPoint x="864" y="180" as="targetPoint" />
            <Array as="points">
              <mxPoint x="864" y="-60" />
              <mxPoint x="940" y="-60" />
              <mxPoint x="940" y="130" />
              <mxPoint x="867" y="130" />
            </Array>
          </mxGeometry>
        </mxCell>
        <mxCell id="XYN2sOscaeufvXK0oWOo-34" value="" style="endArrow=classic;startArrow=classic;html=1;entryX=0.889;entryY=1.018;entryDx=0;entryDy=0;entryPerimeter=0;exitX=0.648;exitY=1.036;exitDx=0;exitDy=0;exitPerimeter=0;" parent="XYN2sOscaeufvXK0oWOo-1" source="XYN2sOscaeufvXK0oWOo-16" target="XYN2sOscaeufvXK0oWOo-16" edge="1">
          <mxGeometry width="50" height="50" relative="1" as="geometry">
            <mxPoint x="580" y="140" as="sourcePoint" />
            <mxPoint x="490" y="-20" as="targetPoint" />
            <Array as="points">
              <mxPoint x="580" y="140" />
              <mxPoint x="800" y="140" />
            </Array>
          </mxGeometry>
        </mxCell>
        <mxCell id="XYN2sOscaeufvXK0oWOo-32" value="打环" style="text;html=1;strokeColor=none;fillColor=none;align=center;verticalAlign=middle;whiteSpace=wrap;rounded=0;" parent="1" vertex="1">
          <mxGeometry x="960" y="290" width="40" height="20" as="geometry" />
        </mxCell>
        <mxCell id="XYN2sOscaeufvXK0oWOo-35" value="打环" style="text;html=1;strokeColor=none;fillColor=none;align=center;verticalAlign=middle;whiteSpace=wrap;rounded=0;" parent="1" vertex="1">
          <mxGeometry x="700" y="400" width="40" height="20" as="geometry" />
        </mxCell>
        <mxCell id="XYN2sOscaeufvXK0oWOo-36" value="" style="endArrow=classic;html=1;exitX=0.809;exitY=0.982;exitDx=0;exitDy=0;exitPerimeter=0;" parent="1" source="XYN2sOscaeufvXK0oWOo-16" edge="1">
          <mxGeometry width="50" height="50" relative="1" as="geometry">
            <mxPoint x="460" y="280" as="sourcePoint" />
            <mxPoint x="748" y="510" as="targetPoint" />
          </mxGeometry>
        </mxCell>
        <mxCell id="XYN2sOscaeufvXK0oWOo-37" value="USB&amp;nbsp;红&amp;nbsp;电源&lt;br&gt;" style="text;html=1;strokeColor=none;fillColor=none;align=center;verticalAlign=middle;whiteSpace=wrap;rounded=0;" parent="1" vertex="1">
          <mxGeometry x="730" y="510" width="40" height="20" as="geometry" />
        </mxCell>
        <mxCell id="vbNUgY74Hi5sOO2RHMOH-1" value="" style="endArrow=classic;html=1;exitX=0.341;exitY=0.036;exitDx=0;exitDy=0;exitPerimeter=0;" edge="1" parent="1" source="XYN2sOscaeufvXK0oWOo-2">
          <mxGeometry width="50" height="50" relative="1" as="geometry">
            <mxPoint x="540" y="310" as="sourcePoint" />
            <mxPoint x="327" y="160" as="targetPoint" />
          </mxGeometry>
        </mxCell>
        <mxCell id="vbNUgY74Hi5sOO2RHMOH-2" value="" style="endArrow=classic;html=1;exitX=0.344;exitY=1;exitDx=0;exitDy=0;exitPerimeter=0;" edge="1" parent="1" source="XYN2sOscaeufvXK0oWOo-16">
          <mxGeometry width="50" height="50" relative="1" as="geometry">
            <mxPoint x="336.9000000000001" y="271.98" as="sourcePoint" />
            <mxPoint x="330" y="470" as="targetPoint" />
          </mxGeometry>
        </mxCell>
      </root>
    </mxGraphModel>
  </diagram>
</mxfile>
